<?xml version="1.0" encoding="utf-8"?>
<!-- Generator: Adobe Illustrator 16.0.0, SVG Export Plug-In . SVG Version: 6.00 Build 0)  -->
<!DOCTYPE svg PUBLIC "-//W3C//DTD SVG 1.1//EN" "http://www.w3.org/Graphics/SVG/1.1/DTD/svg11.dtd">
<svg version="1.1" xmlns="http://www.w3.org/2000/svg" xmlns:xlink="http://www.w3.org/1999/xlink" x="0px" y="0px"
	 width="595.281px" height="841.891px" viewBox="0 0 595.281 841.891" enable-background="new 0 0 595.281 841.891"
	 xml:space="preserve">
<g id="New_Layer">
	<path fill-rule="evenodd" clip-rule="evenodd" fill="#D1DEE6" d="M337.948-398.496c3.038-0.61,6.161-0.055,7.199,3.999
		c3.179,12.409-14.665,11.017-12.798,0.8C332.539-394.734,333.019-397.51,337.948-398.496z"/>
	<path fill-rule="evenodd" clip-rule="evenodd" fill="#D1DEE6" d="M286.754-340.904c-12.01-2.051-22.866-3.533-33.596-8.799
		c-7.354-3.609-21.066-13.302-22.398-20.798c-0.816-4.592,2.062-12.206,4-17.597c6.001-16.698,17.726-28.106,31.196-35.197
		c-5.911,6.887-10.022,15.575-10.399,27.998c-7.752,1.646-14.577,14.075-13.598,23.196c0.306,2.855,1.357,1.483,2.4,2.4
		c0.381,0.335-0.277,1.954,0,2.399c0.609,0.98,0.848,4.196,3.999,2.399c3.493-5.678-5.691-3.306-5.599-7.998
		c1.064-11.525,6.364-21.344,15.999-20.798c9.646,0.546,12.807,11.508,14.398,22.396c-1.973,2.027-9.803,1.561-6.399,6.399
		c4.012,2.041,2.827-2.357,4-3.999c1.787-2.499,2.939-2.083,3.2-4.8c0.901-9.41-7.942-20.294-15.199-22.397
		c0.813-15.718,6.896-26.167,17.598-31.996c-20.409-21.858-14.6-69.386,15.999-72.791c3.733,0,7.465,0,11.199,0
		c0,0.266,0,0.533,0,0.8c13.525,2.109,25.893,13.36,27.997,27.997c2.486,17.3-3.67,34.251-11.999,43.994
		c6.719,7.412,14.447,13.817,16.798,25.597c-4.782,3.422-6.653,3.784-7.199,8.799c-1.569,14.404,23.073,15.657,19.197-1.6
		c-0.906-4.036-4.216-5.336-8.798-7.199c-1.256-8.082-7.415-15.51-9.6-19.998c12.346,6.934,22.116,15.671,28.797,29.597
		c3.161,6.592,7.423,16.432,6.398,22.396c-1.285,7.489-13.76,15.523-22.396,19.998c-11.085,5.742-22.834,8.394-33.597,9.599
		C301.686-340.904,294.22-340.904,286.754-340.904z M275.556-478.487c-3.727,5.172-3.293,13.732-2.4,21.598
		c-1.948,0.714-4.115-3.567-4,0c1.678,15.266,10.192,32.642,23.197,35.196c23.395,4.596,33.277-19.054,35.196-40.795
		c-1.293-2.767-2.873,5-3.999,2.4c-1.111-7.423-3.763-13.302-7.2-18.398C305.472-470.949,287.762-474.588,275.556-478.487z
		 M302.752-416.095c-11.696,1.936-17.418-4.826-22.397-5.6c6.696,6.636,10.649,16.014,17.598,22.397
		c4.292-8.243,13.574-15.751,15.998-23.197C311.226-419.775,307.375-416.859,302.752-416.095z M313.151-373.7
		c-2.133,0-4.266,0-6.398,0c0,1.867,0,3.733,0,5.6c2.133,0,4.266,0,6.398,0c0,2.133,0,4.266,0,6.399c1.867,0,3.733,0,5.6,0
		c0-2.134,0-4.267,0-6.399c2.133,0,4.266,0,6.399,0c0-1.866,0-3.732,0-5.6c-1.913-0.486-5.804,1.005-6.399-0.8
		c0-2.134,0-4.266,0-6.398c-1.866,0-3.732,0-5.6,0C313.151-378.5,313.151-376.1,313.151-373.7z"/>
</g>
<g id="MasterLayer_1">
</g>
</svg>
