<?xml version="1.0" encoding="utf-8"?>
<!-- Generator: Adobe Illustrator 16.0.0, SVG Export Plug-In . SVG Version: 6.00 Build 0)  -->
<!DOCTYPE svg PUBLIC "-//W3C//DTD SVG 1.1//EN" "http://www.w3.org/Graphics/SVG/1.1/DTD/svg11.dtd">
<svg version="1.1" id="Capa_1" xmlns="http://www.w3.org/2000/svg" xmlns:xlink="http://www.w3.org/1999/xlink" x="0px" y="0px"
	 width="167.698px" height="199.2px" viewBox="0 0 167.698 199.2" enable-background="new 0 0 167.698 199.2" xml:space="preserve">
<path fill="#C5E1E8" d="M133.774,127.768c3.769-0.755,7.642-0.066,8.93,4.96c3.941,15.391-18.189,13.665-15.874,0.992
	C127.065,132.435,127.66,128.993,133.774,127.768z"/>
<path fill="#C5E1E8" d="M70.277,199.2c-14.896-2.544-28.361-4.382-41.669-10.912c-9.12-4.478-26.128-16.5-27.78-25.797
	c-1.012-5.696,2.557-15.14,4.961-21.825c7.443-20.711,21.986-34.861,38.693-43.655c-7.331,8.542-12.43,19.318-12.898,34.725
	c-9.615,2.042-18.08,17.457-16.867,28.771c0.381,3.542,1.685,1.839,2.977,2.977c0.473,0.417-0.343,2.425,0,2.977
	c0.757,1.215,1.052,5.205,4.96,2.977c4.333-7.042-7.058-4.101-6.944-9.92c1.319-14.295,7.893-26.473,19.843-25.797
	c11.965,0.679,15.885,14.273,17.858,27.779c-2.447,2.516-12.158,1.936-7.937,7.938c4.977,2.531,3.506-2.924,4.961-4.961
	c2.216-3.099,3.646-2.583,3.969-5.951c1.118-11.673-9.85-25.172-18.851-27.781c1.009-19.495,8.552-32.456,21.827-39.685
	C32.066,63.948,39.272,4.999,77.223,0.775c4.63,0,9.26,0,13.89,0c0,0.33,0,0.662,0,0.992c16.775,2.617,32.116,16.571,34.726,34.725
	c3.084,21.458-4.552,42.482-14.882,54.567c8.333,9.193,17.917,17.137,20.834,31.749c-5.931,4.244-8.252,4.694-8.93,10.912
	c-1.946,17.866,28.618,19.421,23.812-1.984c-1.124-5.006-5.229-6.617-10.913-8.928c-1.558-10.024-9.195-19.237-11.905-24.804
	c15.312,8.601,27.432,19.438,35.716,36.708c3.922,8.177,9.207,20.38,7.937,27.779c-1.594,9.289-17.066,19.254-27.778,24.804
	c-13.749,7.122-28.321,10.411-41.67,11.905C88.797,199.2,79.537,199.2,70.277,199.2z M56.388,28.555
	c-4.623,6.415-4.084,17.031-2.977,26.788c-2.416,0.885-5.103-4.424-4.96,0c2.081,18.934,12.641,40.486,28.771,43.655
	c29.017,5.699,41.273-23.634,43.653-50.599c-1.604-3.433-3.563,6.201-4.96,2.977c-1.377-9.206-4.667-16.498-8.93-22.819
	C93.493,37.904,71.526,33.391,56.388,28.555z M90.119,105.941c-14.507,2.401-21.603-5.986-27.779-6.946
	c8.306,8.23,13.209,19.862,21.827,27.781c5.324-10.225,16.836-19.537,19.843-28.773C100.629,101.375,95.852,104.994,90.119,105.941z
	 M103.017,158.524c-2.646,0-5.292,0-7.937,0c0,2.313,0,4.63,0,6.943c2.646,0,5.291,0,7.937,0c0,2.646,0,5.291,0,7.938
	c2.315,0,4.63,0,6.945,0c0-2.647,0-5.293,0-7.938c2.646,0,5.291,0,7.937,0c0-2.313,0-4.63,0-6.943
	c-2.372-0.605-7.198,1.244-7.937-0.992c0-2.647,0-5.293,0-7.938c-2.315,0-4.63,0-6.945,0
	C103.017,152.57,103.017,155.547,103.017,158.524z"/>
</svg>
