<?xml version="1.0" encoding="utf-8"?>
<!-- Generator: Adobe Illustrator 15.0.0, SVG Export Plug-In . SVG Version: 6.00 Build 0)  -->
<!DOCTYPE svg PUBLIC "-//W3C//DTD SVG 1.1//EN" "http://www.w3.org/Graphics/SVG/1.1/DTD/svg11.dtd">
<svg version="1.1" id="Capa_1" xmlns="http://www.w3.org/2000/svg" xmlns:xlink="http://www.w3.org/1999/xlink" x="0px" y="0px"
	 width="218.989px" height="266.701px" viewBox="0 0 218.989 266.701" enable-background="new 0 0 218.989 266.701"
	 xml:space="preserve">
<path fill-rule="evenodd" clip-rule="evenodd" fill="#C5E1E8" d="M167.885,165.387c3.798-0.762,7.701-0.068,8.999,4.999
	c3.973,15.512-18.331,13.771-15.998,1C161.123,170.09,161.724,166.621,167.885,165.387z"/>
<path fill-rule="evenodd" clip-rule="evenodd" fill="#C5E1E8" d="M103.893,237.377c-15.013-2.563-28.583-4.416-41.995-10.998
	c-9.192-4.512-26.332-16.628-27.997-25.997c-1.02-5.74,2.577-15.258,5-21.997c7.501-20.872,22.157-35.133,38.995-43.995
	c-7.389,8.609-12.528,19.468-12.999,34.996c-9.69,2.058-18.221,17.594-16.998,28.996c0.383,3.569,1.697,1.854,3,3
	c0.476,0.419-0.346,2.443,0,3c0.762,1.225,1.06,5.245,4.999,2.999c4.366-7.097-7.114-4.132-6.999-9.998
	c1.33-14.406,7.955-26.679,19.998-25.997c12.058,0.683,16.009,14.385,17.998,27.996c-2.466,2.534-12.253,1.95-7.999,7.999
	c5.015,2.551,3.533-2.947,5-4.999c2.233-3.124,3.674-2.604,4-5.999c1.126-11.763-9.927-25.368-18.998-27.997
	c1.016-19.648,8.619-32.709,21.997-39.995c-25.512-27.323-18.25-86.733,19.998-90.989c4.666,0,9.332,0,13.998,0c0,0.333,0,0.667,0,1
	c16.906,2.637,32.366,16.7,34.996,34.996c3.108,21.625-4.587,42.814-14.998,54.993c8.398,9.265,18.058,17.271,20.997,31.996
	c-5.977,4.278-8.316,4.731-8.999,10.999c-1.962,18.005,28.842,19.572,23.997-2c-1.133-5.045-5.27-6.669-10.998-8.999
	c-1.57-10.102-9.268-19.387-11.999-24.997c15.432,8.667,27.646,19.589,35.995,36.996c3.953,8.239,9.279,20.539,7.999,27.996
	c-1.606,9.361-17.2,19.404-27.996,24.997c-13.856,7.178-28.542,10.492-41.995,11.998
	C122.557,237.377,113.225,237.377,103.893,237.377z M89.895,65.399c-4.659,6.465-4.116,17.164-3,26.997
	c-2.435,0.892-5.143-4.459-4.999,0c2.097,19.082,12.74,40.802,28.996,43.995c29.243,5.744,41.596-23.818,43.994-50.994
	c-1.616-3.459-3.591,6.25-4.999,3c-1.388-9.278-4.703-16.627-8.999-22.997C127.29,74.821,105.152,70.272,89.895,65.399z
	 M123.89,143.389c-14.62,2.42-21.772-6.032-27.996-6.999c8.37,8.294,13.312,20.017,21.997,27.997
	c5.365-10.304,16.968-19.689,19.998-28.997C134.482,138.788,129.667,142.434,123.89,143.389z M136.889,196.383
	c-2.667,0-5.333,0-7.999,0c0,2.333,0,4.666,0,6.999c2.666,0,5.332,0,7.999,0c0,2.666,0,5.332,0,7.999c2.333,0,4.666,0,6.999,0
	c0-2.667,0-5.333,0-7.999c2.666,0,5.332,0,7.999,0c0-2.333,0-4.666,0-6.999c-2.391-0.609-7.255,1.255-7.999-1
	c0-2.667,0-5.333,0-7.999c-2.333,0-4.666,0-6.999,0C136.889,190.383,136.889,193.383,136.889,196.383z"/>
</svg>
