<?xml version="1.0" encoding="utf-8"?>
<!-- Generator: Adobe Illustrator 16.0.0, SVG Export Plug-In . SVG Version: 6.00 Build 0)  -->
<!DOCTYPE svg PUBLIC "-//W3C//DTD SVG 1.1//EN" "http://www.w3.org/Graphics/SVG/1.1/DTD/svg11.dtd">
<svg version="1.1" xmlns="http://www.w3.org/2000/svg" xmlns:xlink="http://www.w3.org/1999/xlink" x="0px" y="0px"
	 width="595.281px" height="841.891px" viewBox="0 0 595.281 841.891" enable-background="new 0 0 595.281 841.891"
	 xml:space="preserve">
<g id="New_Layer">
	<path fill-rule="evenodd" clip-rule="evenodd" fill="#D1DEE6" d="M361.646-484.315c4.07,9.02,2.399,21.28,2.399,33.596
		c0,11.839,0,24.094,0,35.196c-4.873,4.191-10.591,7.539-16.798,10.398c0,5.332,0,10.665,0,15.998
		c1.118,4.318-3.758,2.641-3.999,5.6c-0.492,8.573,1.011,19.142-0.801,26.396c-35.472,1.855-74.383,0.273-111.186,0.8
		c0.289-28.001-5.501-57.448,22.397-61.593c11.718-1.74,47.504-1.254,55.193,2.4c15.594,7.412,15.262,25.43,14.398,50.394
		c2.42,1.846,8.251,0.282,11.999,0.8c0-6.133,0-12.266,0-18.397c0.485-3.687-4.219-2.182-3.999-5.6c0-5.333,0-10.665,0-15.998
		c-5.077-4.255-11.886-6.779-16.799-11.198c0-21.598,0-43.195,0-64.792c2.484-7.475,14.894-5.6,27.996-5.6
		C350.054-485.916,357.585-486.728,361.646-484.315z M323.25-477.917c-1.865,17.599-0.268,38.661-0.801,57.593
		c5.052,3.476,10.306,9.074,17.599,8.798c6.554-0.247,10.731-5.749,15.998-7.998c0-19.465,0-38.929,0-58.393
		C345.114-477.917,334.182-477.917,323.25-477.917z"/>
	<path fill-rule="evenodd" clip-rule="evenodd" fill="#D1DEE6" d="M273.657-479.515c15.834-2.17,30.99,9.511,31.196,26.396
		c0.165,13.651-10.791,26.778-24.797,27.997c-28.729,2.5-38.868-33.674-20.798-48.794
		C262.807-476.886,267.799-478.713,273.657-479.515z"/>
	<path fill-rule="evenodd" clip-rule="evenodd" fill="#D1DEE6" d="M344.048-462.718c1.418,1.515,0.582,5.283,0.799,7.999
		c1.11,1.824,5.568,0.299,7.999,0.8c0,3.467,0,6.933,0,10.4c-2.4,0-4.799,0-7.199,0c-1.823,1.108-0.297,5.567-0.8,7.999
		c-3.465,0-6.932,0-10.398,0c-1.419-1.514-0.583-5.283-0.8-7.999c-2.667,0-5.333,0-7.999,0c0-3.467,0-6.933,0-10.4
		c2.666,0,5.332,0,7.999,0C331.47-462.499,336.464-463.903,344.048-462.718z"/>
</g>
<g id="MasterLayer_1">
</g>
</svg>
