<?xml version="1.0" encoding="utf-8"?>
<!-- Generator: Adobe Illustrator 15.0.0, SVG Export Plug-In . SVG Version: 6.00 Build 0)  -->
<!DOCTYPE svg PUBLIC "-//W3C//DTD SVG 1.1//EN" "http://www.w3.org/Graphics/SVG/1.1/DTD/svg11.dtd">
<svg version="1.1" id="Capa_1" xmlns="http://www.w3.org/2000/svg" xmlns:xlink="http://www.w3.org/1999/xlink" x="0px" y="0px"
	 width="202.953px" height="206.989px" viewBox="0 0 202.953 206.989" enable-background="new 0 0 202.953 206.989"
	 xml:space="preserve">
<path fill-rule="evenodd" clip-rule="evenodd" fill="#C5E1E8" d="M181.882,25.901c5.088,11.276,2.999,26.6,2.999,41.995
	c0,14.8,0,30.118,0,43.995c-6.091,5.24-13.239,9.424-20.997,12.998c0,6.666,0,13.332,0,19.998c1.399,5.398-4.697,3.301-4.999,6.999
	c-0.615,10.717,1.264,23.928-1,32.996c-44.34,2.32-92.979,0.342-138.983,1c0.361-35.002-6.877-71.81,27.997-76.991
	c14.647-2.176,59.38-1.568,68.991,3c19.493,9.266,19.078,31.788,17.998,62.992c3.025,2.308,10.313,0.353,14.998,1
	c0-7.666,0-15.332,0-22.997c0.608-4.608-5.272-2.727-4.999-6.999c0-6.666,0-13.332,0-19.998
	c-6.346-5.319-14.856-8.474-20.998-13.998c0-26.997,0-53.993,0-80.99c3.106-9.343,18.617-6.999,34.996-6.999
	C167.392,23.902,176.806,22.886,181.882,25.901z M133.888,33.9c-2.332,21.999-0.334,48.326-1,71.991
	c6.313,4.345,12.881,11.343,21.997,10.998c8.193-0.309,13.415-7.186,19.998-9.998c0-24.331,0-48.661,0-72.991
	C161.218,33.9,147.553,33.9,133.888,33.9z"/>
<path fill-rule="evenodd" clip-rule="evenodd" fill="#C5E1E8" d="M71.896,31.901c19.792-2.712,38.738,11.889,38.995,32.996
	c0.207,17.063-13.488,33.472-30.996,34.996C43.983,103.018,31.31,57.8,53.898,38.9C58.334,35.188,64.574,32.904,71.896,31.901z"/>
<path fill-rule="evenodd" clip-rule="evenodd" fill="#C5E1E8" d="M159.885,52.898c1.773,1.893,0.728,6.604,0.999,9.999
	c1.387,2.28,6.96,0.373,9.999,1c0,4.333,0,8.666,0,12.999c-3,0-5.999,0-8.999,0c-2.279,1.386-0.372,6.959-1,9.999
	c-4.332,0-8.665,0-12.998,0c-1.773-1.892-0.729-6.604-1-9.999c-3.333,0-6.666,0-9.999,0c0-4.333,0-8.666,0-12.999
	c3.333,0,6.666,0,9.999,0C144.162,53.173,150.405,51.417,159.885,52.898z"/>
</svg>
