<?xml version="1.0" encoding="utf-8"?>
<!-- Generator: Adobe Illustrator 16.0.0, SVG Export Plug-In . SVG Version: 6.00 Build 0)  -->
<!DOCTYPE svg PUBLIC "-//W3C//DTD SVG 1.1//EN" "http://www.w3.org/Graphics/SVG/1.1/DTD/svg11.dtd">
<svg version="1.1" id="Capa_1" xmlns="http://www.w3.org/2000/svg" xmlns:xlink="http://www.w3.org/1999/xlink" x="0px" y="0px"
	 width="202.953px" height="198.425px" viewBox="0 8.563 202.953 198.425" enable-background="new 0 8.563 202.953 198.425"
	 xml:space="preserve">
<path fill="#C5E1E8" d="M199.282,11.389c5.407,0.933,3.662,32.489,3.662,51.292c0,18.076,0,36.786,0,53.735
	c-7.438,6.4-16.169,11.51-25.646,15.875c0,8.143,0,16.284,0,24.426c1.71,6.594-5.735,4.031-6.105,8.547
	c-0.751,13.091,0.121,40.824-2.217,41.725c-54.002,1.036-112.567-1.005-168.756-0.202c0.441-42.751-8.399-87.706,34.195-94.034
	c17.89-2.658,72.526-1.916,84.265,3.664c23.808,11.316,23.301,38.824,21.982,76.938c3.694,2.818,12.596,0.431,18.318,1.222
	c0-9.363,0-18.727,0-28.09c0.742-5.627-6.44-3.33-6.106-8.547c0-8.143,0-16.284,0-24.426c-7.751-6.497-18.145-10.351-25.646-17.097
	c0-32.974,0-65.947,0-98.921c1.735-11.688,22.738-8.548,42.743-8.548C181.585,8.947,193.083,7.706,199.282,11.389z M140.663,21.159
	c-2.848,26.869-0.407,59.025-1.221,87.929c7.71,5.307,15.732,13.854,26.865,13.434c10.008-0.377,16.385-8.776,24.426-12.212
	c0-29.717,0-59.434,0-89.15C174.043,21.159,157.353,21.159,140.663,21.159z"/>
<path fill="#C5E1E8" d="M65.276,15.758c24.174-3.312,47.313,14.521,47.627,40.301c0.253,20.84-16.474,40.882-37.857,42.744
	c-43.863,3.817-59.341-51.412-31.752-74.496C48.711,19.773,56.333,16.983,65.276,15.758z"/>
<path fill="#C5E1E8" d="M172.744,41.404c2.166,2.312,0.89,8.066,1.22,12.212c1.695,2.785,8.501,0.456,12.213,1.222
	c0,5.292,0,10.584,0,15.876c-3.664,0-7.327,0-10.991,0c-2.783,1.693-0.454,8.5-1.222,12.213c-5.291,0-10.583,0-15.874,0
	c-2.166-2.311-0.893-8.066-1.222-12.213c-4.072,0-8.142,0-12.214,0c0-5.292,0-10.584,0-15.876c4.072,0,8.142,0,12.214,0
	C156.571,40.325,158.199,38.269,172.744,41.404z"/>
</svg>
