<?xml version="1.0" encoding="utf-8"?>
<!-- Generator: Adobe Illustrator 16.0.0, SVG Export Plug-In . SVG Version: 6.00 Build 0)  -->
<!DOCTYPE svg PUBLIC "-//W3C//DTD SVG 1.1//EN" "http://www.w3.org/Graphics/SVG/1.1/DTD/svg11.dtd">
<svg version="1.1" id="Capa_1" xmlns="http://www.w3.org/2000/svg" xmlns:xlink="http://www.w3.org/1999/xlink" x="0px" y="0px"
	 width="198.425px" height="198.425px" viewBox="2.264 0 198.425 198.425" enable-background="new 2.264 0 198.425 198.425"
	 xml:space="preserve">
<path fill="#C5E1E8" d="M193.655,2.82c5.122,0.932,3.468,32.44,3.468,51.215c0,18.049,0,36.73,0,53.653
	c-7.046,6.391-15.316,11.493-24.294,15.851c0,8.132,0,16.261,0,24.39c1.619,6.584-5.435,4.024-5.784,8.534
	c-0.712,13.071,0.115,40.762-2.1,41.663c-51.158,1.033-106.639-1.005-159.869-0.202c0.418-42.687-7.957-87.574,32.394-93.892
	c16.948-2.655,68.706-1.913,79.826,3.658c22.555,11.298,22.074,38.765,20.825,76.821c3.499,2.814,11.933,0.432,17.354,1.221
	c0-9.35,0-18.699,0-28.048c0.703-5.619-6.101-3.325-5.784-8.534c0-8.132,0-16.26,0-24.39c-7.344-6.487-17.19-10.335-24.296-17.07
	c0-32.925,0-65.848,0-98.772c1.644-11.671,21.541-8.535,40.491-8.535C176.891,0.382,187.783-0.857,193.655,2.82z M138.124,12.576
	c-2.7,26.828-0.387,58.935-1.158,87.795c7.305,5.3,14.903,13.833,25.45,13.415c9.48-0.377,15.521-8.764,23.14-12.194
	c0-29.672,0-59.344,0-89.015C169.745,12.576,153.935,12.576,138.124,12.576z"/>
<path fill="#C5E1E8" d="M66.707,7.182c22.901-3.307,44.822,14.499,45.118,40.24c0.24,20.809-15.605,40.82-35.862,42.679
	c-41.553,3.812-56.216-51.334-30.08-74.383C51.014,11.191,58.234,8.405,66.707,7.182z"/>
<path fill="#C5E1E8" d="M168.515,32.79c2.052,2.309,0.844,8.054,1.156,12.194c1.605,2.781,8.052,0.456,11.569,1.22
	c0,5.284,0,10.568,0,15.852c-3.471,0-6.942,0-10.413,0c-2.637,1.691-0.43,8.487-1.156,12.195c-5.013,0-10.026,0-15.039,0
	c-2.052-2.307-0.846-8.054-1.156-12.195c-3.858,0-7.714,0-11.572,0c0-5.284,0-10.568,0-15.852c3.858,0,7.714,0,11.572,0
	C153.192,31.712,154.735,29.659,168.515,32.79z"/>
</svg>
